<svg width="128" height="36" viewBox="0 0 128 36" fill="none" xmlns="http://www.w3.org/2000/svg">
<path d="M20.1644 24.7808L13.8347 31.4437C12.8907 32.4374 11.5802 33 10.2097 33H2.71362C1.84322 33 1.38834 31.9651 1.97689 31.3238L13.585 18.6762C13.936 18.2937 13.936 17.7063 13.585 17.3238L1.97689 4.67618C1.38834 4.03493 1.84322 3 2.71362 3H10.2097C11.5802 3 12.8907 3.56261 13.8347 4.55627L20.1644 11.2193M20.1644 24.7808C23.4521 21.0822 29.411 21.0822 32.9041 24.7808L37.5891 29.7123L40.7123 32.9999M20.1644 24.7808L26.4942 31.4437C27.4382 32.4373 28.7486 32.9999 30.1192 32.9999H40.7123M20.1644 11.2193C23.4521 14.9179 29.411 14.9179 32.9041 11.2193L37.5891 6.28766L40.7123 3M20.1644 11.2193L26.4942 4.55627C27.4382 3.56261 28.7486 3 30.1192 3H40.7123M40.7123 32.9999C50.1109 32.9999 57.5616 26.2849 57.5616 18C57.5616 9.71505 50.1109 3 40.7123 3" stroke="url(#paint0_linear_678_274)" stroke-width="2.5"/>
<path d="M69.5615 33L79.5615 3" stroke="#F8F8F8" stroke-opacity="0.5" stroke-linecap="round"/>
<path d="M109.562 0C99.6206 0 91.5615 8.05827 91.5615 18C91.5615 27.9417 99.6206 36 109.562 36C119.502 36 127.562 27.9417 127.562 18C127.562 8.05827 119.502 0 109.562 0ZM118.343 25.9481C118.054 26.46 117.522 26.748 116.974 26.748C116.718 26.748 116.453 26.6839 116.211 26.5489C113.963 25.2889 111.514 24.5171 108.926 24.255C106.332 23.9951 103.772 24.2583 101.312 25.0437C100.491 25.3058 99.607 24.8523 99.3452 24.03C99.0806 23.2064 99.5361 22.3257 100.36 22.0623C103.229 21.1456 106.221 20.8339 109.242 21.141C112.259 21.4481 115.117 22.3481 117.741 23.8186C118.496 24.2392 118.766 25.1932 118.343 25.9481ZM120.498 20.4807C120.22 21.0161 119.674 21.3232 119.11 21.3232C118.864 21.3232 118.619 21.267 118.387 21.1456C115.624 19.7067 112.641 18.8157 109.512 18.4983C106.36 18.1756 103.237 18.4568 100.226 19.3252C99.3943 19.5614 98.527 19.0857 98.2897 18.2542C98.0497 17.424 98.5297 16.5567 99.3588 16.317C102.757 15.3371 106.281 15.0232 109.829 15.3832C113.352 15.7421 116.718 16.7457 119.835 18.3701C120.599 18.7696 120.899 19.7144 120.498 20.4807ZM121.278 15.9322C121.043 15.9322 120.806 15.8793 120.58 15.768C117.302 14.1333 113.775 13.1152 110.096 12.7418C106.412 12.3649 102.746 12.6562 99.1979 13.6036C98.3633 13.8251 97.507 13.3301 97.2833 12.4942C97.0597 11.6594 97.5561 10.8011 98.3934 10.5783C102.307 9.53318 106.354 9.21491 110.415 9.62782C114.471 10.0383 118.36 11.1622 121.976 12.9657C122.751 13.3514 123.064 14.292 122.68 15.0649C122.407 15.615 121.853 15.9322 121.278 15.9322Z" fill="#1ED760"/>
<defs>
<linearGradient id="paint0_linear_678_274" x1="0.438476" y1="18.2054" x2="57.5616" y2="18.2054" gradientUnits="userSpaceOnUse">
<stop stop-color="#FF6538"/>
<stop offset="1" stop-color="#AA29CB"/>
</linearGradient>
</defs>
</svg>
