<svg width="20" height="18" viewBox="0 0 20 18" fill="none" xmlns="http://www.w3.org/2000/svg">
<path d="M2.83998 4.99988C3.57767 3.72216 4.65432 2.67333 5.95091 1.96934C7.2475 1.26535 8.71351 0.933628 10.1869 1.01084C11.6602 1.08806 13.0835 1.57121 14.2994 2.40687C15.5153 3.24253 16.4765 4.39816 17.0765 5.74599M1 2.51524L1.72941 5.67478C1.85365 6.21291 2.3906 6.54844 2.92873 6.42421L6.08827 5.69479M16.6964 12.9998C15.9587 14.2775 14.8821 15.3263 13.5855 16.0303C12.2889 16.7343 10.8229 17.066 9.34953 16.9888C7.87617 16.9116 6.45287 16.4284 5.23697 15.5928C4.02107 14.7571 3.05995 13.6015 2.45986 12.2537M18.5364 15.4844L17.807 12.3249C17.6828 11.7867 17.1458 11.4512 16.6077 11.5754L13.4481 12.3049" stroke="#FF6538" stroke-width="2" stroke-linecap="round"/>
</svg>
