<svg width="20" height="18" viewBox="0 0 20 18" fill="none" xmlns="http://www.w3.org/2000/svg">
<path d="M2.83998 5C3.57767 3.72229 4.65432 2.67345 5.95091 1.96946C7.2475 1.26547 8.71351 0.93375 10.1869 1.01097C11.6602 1.08818 13.0835 1.57133 14.2994 2.40699C15.5153 3.24266 16.4765 4.39828 17.0765 5.74611M1 2.51537L1.72941 5.6749C1.85365 6.21303 2.3906 6.54856 2.92873 6.42433L6.08827 5.69492M16.6964 12.9999C15.9587 14.2776 14.8821 15.3264 13.5855 16.0304C12.2889 16.7344 10.8229 17.0661 9.34953 16.9889C7.87617 16.9117 6.45287 16.4286 5.23697 15.5929C4.02107 14.7572 3.05995 13.6016 2.45986 12.2538M18.5364 15.4845L17.807 12.325C17.6828 11.7869 17.1458 11.4513 16.6077 11.5756L13.4481 12.305" stroke="#F8F8F8" stroke-width="2" stroke-linecap="round"/>
</svg>
