<svg width="13" height="16" viewBox="0 0 13 16" fill="none" xmlns="http://www.w3.org/2000/svg">
<path d="M6.1966 10.1818C6.96814 10.1818 7.70808 9.87533 8.25364 9.32977C8.7992 8.78421 9.10569 8.04427 9.10569 7.27273V2.90909C9.10569 2.13755 8.7992 1.39761 8.25364 0.852053C7.70808 0.306493 6.96814 0 6.1966 0C5.42506 0 4.68512 0.306493 4.13956 0.852053C3.594 1.39761 3.28751 2.13755 3.28751 2.90909V7.27273C3.28751 8.04427 3.594 8.78421 4.13956 9.32977C4.68512 9.87533 5.42506 10.1818 6.1966 10.1818ZM4.74205 2.90909C4.74205 2.52332 4.8953 2.15335 5.16808 1.88057C5.44086 1.60779 5.81083 1.45455 6.1966 1.45455C6.58237 1.45455 6.95234 1.60779 7.22512 1.88057C7.4979 2.15335 7.65114 2.52332 7.65114 2.90909V7.27273C7.65114 7.6585 7.4979 8.02847 7.22512 8.30125C6.95234 8.57403 6.58237 8.72727 6.1966 8.72727C5.81083 8.72727 5.44086 8.57403 5.16808 8.30125C4.8953 8.02847 4.74205 7.6585 4.74205 7.27273V2.90909ZM12.0148 7.27273C12.0148 7.07984 11.9382 6.89486 11.8018 6.75847C11.6654 6.62208 11.4804 6.54545 11.2875 6.54545C11.0946 6.54545 10.9096 6.62208 10.7732 6.75847C10.6369 6.89486 10.5602 7.07984 10.5602 7.27273C10.5602 8.43004 10.1005 9.53994 9.28216 10.3583C8.46382 11.1766 7.35391 11.6364 6.1966 11.6364C5.03929 11.6364 3.92938 11.1766 3.11104 10.3583C2.2927 9.53994 1.83296 8.43004 1.83296 7.27273C1.83296 7.07984 1.75634 6.89486 1.61995 6.75847C1.48356 6.62208 1.29858 6.54545 1.10569 6.54545C0.912806 6.54545 0.727821 6.62208 0.591431 6.75847C0.455041 6.89486 0.378418 7.07984 0.378418 7.27273C0.379702 8.68894 0.897488 10.0561 1.83471 11.1178C2.77193 12.1795 4.06422 12.863 5.46933 13.04V14.5455H4.01478C3.8219 14.5455 3.63691 14.6221 3.50052 14.7585C3.36413 14.8949 3.28751 15.0798 3.28751 15.2727C3.28751 15.4656 3.36413 15.6506 3.50052 15.787C3.63691 15.9234 3.8219 16 4.01478 16H8.37842C8.5713 16 8.75629 15.9234 8.89268 15.787C9.02907 15.6506 9.10569 15.4656 9.10569 15.2727C9.10569 15.0798 9.02907 14.8949 8.89268 14.7585C8.75629 14.6221 8.5713 14.5455 8.37842 14.5455H6.92387V13.04C8.32898 12.863 9.62127 12.1795 10.5585 11.1178C11.4957 10.0561 12.0135 8.68894 12.0148 7.27273Z" fill="#F8F8F8"/>
</svg>
