<svg width="21" height="16" viewBox="0 0 21 16" fill="none" xmlns="http://www.w3.org/2000/svg">
<path d="M15.9506 15L19.1175 13.2071C19.676 12.8166 19.676 12.1834 19.1175 11.7929L15.9506 10M10.4506 8.00001L8.15166 5.04424C7.39384 4.0699 6.22862 3.50001 4.99426 3.50001H1.53638M10.4506 8.00001L12.7495 10.9558C13.5073 11.9301 14.6726 12.5 15.9069 12.5H18.9506M10.4506 8.00001L8.15166 10.9558C7.39384 11.9301 6.22862 12.5 4.99426 12.5H1.53638M10.4506 8.00001L12.7495 5.04424C13.5073 4.06989 14.6726 3.5 15.9069 3.5L18.9506 3.5M15.9506 1L19.1175 2.79289C19.676 3.18342 19.676 3.81658 19.1175 4.20711L15.9506 6" stroke="#F8F8F8" stroke-width="2" stroke-linecap="round"/>
</svg>
