<svg width="37" height="36" viewBox="0 0 37 36" fill="none" xmlns="http://www.w3.org/2000/svg">
<path fill-rule="evenodd" clip-rule="evenodd" d="M36.5364 18C36.5364 27.9411 28.4775 36 18.5364 36C8.59525 36 0.536377 27.9411 0.536377 18C0.536377 8.05887 8.59525 0 18.5364 0C28.4775 0 36.5364 8.05887 36.5364 18ZM12.5364 12.5C12.5364 11.9477 12.9841 11.5 13.5364 11.5H16.5364C17.0887 11.5 17.5364 11.9477 17.5364 12.5V23.5C17.5364 24.0523 17.0887 24.5 16.5364 24.5H13.5364C12.9841 24.5 12.5364 24.0523 12.5364 23.5V12.5ZM20.5364 11.5C19.9841 11.5 19.5364 11.9477 19.5364 12.5V23.5C19.5364 24.0523 19.9841 24.5 20.5364 24.5H23.5364C24.0887 24.5 24.5364 24.0523 24.5364 23.5V12.5C24.5364 11.9477 24.0887 11.5 23.5364 11.5H20.5364Z" fill="#F8F8F8"/>
</svg>
